<svg id="FAV" xmlns="http://www.w3.org/2000/svg" viewBox="0 0 46 44.14"><title>fav</title><path d="M45.42,25.76a5.91,5.91,0,0,0-1.67-2,30.93,30.93,0,0,0-4-2.44,17.09,17.09,0,0,1-4.59-3.12,2.66,2.66,0,0,1-.67-1.76,3,3,0,0,1,1.06-2.25,3.76,3.76,0,0,1,2.68-1,5.68,5.68,0,0,1,2.77.73,5.33,5.33,0,0,1,2.07,2,9.23,9.23,0,0,1,1,3.35h.58V12H44a1.92,1.92,0,0,1-.41,1,.92.92,0,0,1-.66.24,3.75,3.75,0,0,1-1.24-.39,9.36,9.36,0,0,0-3-.81,22.43,22.43,0,0,0-7.53-8.38A18.93,18.93,0,0,0,21,.93C13.81.93,8.29,3.59,4.39,8.84A23,23,0,0,0,0,22.59H.05A1.32,1.32,0,0,0,0,23v.21A22.76,22.76,0,0,0,4.39,37.16c3.9,5.25,9.42,7.91,16.57,7.91a18.93,18.93,0,0,0,10.23-2.66A22.47,22.47,0,0,0,38.72,34q.3,0,.63,0a6.74,6.74,0,0,0,4.79-1.74A5.48,5.48,0,0,0,46,28.17,5.25,5.25,0,0,0,45.42,25.76Zm-3.32,6a4.39,4.39,0,0,1-3.08,1,6.48,6.48,0,0,1-3.09-.75,5.22,5.22,0,0,1-2.1-1.87,10.24,10.24,0,0,1-1.09-3.41h-.58v7.25h.58a1.88,1.88,0,0,1,.33-1,.86.86,0,0,1,.62-.23,8.73,8.73,0,0,1,1.92.49c.83.27,1.41.44,1.78.52-2.41,3.25-4.62,5.47-6.68,6.61a14.89,14.89,0,0,1-7.37,1.78A16.28,16.28,0,0,1,14.73,40,13.94,13.94,0,0,1,9.1,33.43a24.66,24.66,0,0,1-1.84-10v-.82a24.66,24.66,0,0,1,1.84-10A13.94,13.94,0,0,1,14.73,6a16.28,16.28,0,0,1,8.61-2.27,14.89,14.89,0,0,1,7.37,1.78c2,1.13,4.21,3.3,6.59,6.47a5.92,5.92,0,0,0-3.59,1.6A5.17,5.17,0,0,0,32,17.52a5,5,0,0,0,.59,2.39,6.62,6.62,0,0,0,1.74,2,31.84,31.84,0,0,0,3.86,2.42c1.8,1,2.91,1.68,3.32,2A4.79,4.79,0,0,1,42.8,27.8a3.35,3.35,0,0,1,.43,1.57A3.18,3.18,0,0,1,42.1,31.8Z" transform="translate(0 -0.93)"/><path d="M0,22.59V23a1.32,1.32,0,0,1,.05-.44Z" transform="translate(0 -0.93)"/></svg>